<svg xmlns="http://www.w3.org/2000/svg" width="980" height="440" viewBox="0 0 980 440">
<rect width="100%" height="100%" fill="white"/>
<text x="20" y="30" font-family="Arial, sans-serif" font-size="20" font-weight="700">AO1 Late-Delivery Rate by Order Month</text>
<text x="300" y="50" font-family="Arial, sans-serif" font-size="12" fill="#555">Late-delivery rate</text>
<text x="20" y="76" font-family="Arial, sans-serif" font-size="13">01_january</text>
<rect x="300" y="58" width="284" height="22" rx="2" fill="#2f6f73"/>
<text x="592" y="74" font-family="Arial, sans-serif" font-size="12">54.7% (-0.2 pp, n=17,979)</text>
<text x="20" y="110" font-family="Arial, sans-serif" font-size="13">02_february</text>
<rect x="300" y="92" width="283" height="22" rx="2" fill="#2f6f73"/>
<text x="591" y="108" font-family="Arial, sans-serif" font-size="12">54.6% (-0.3 pp, n=14,529)</text>
<text x="20" y="144" font-family="Arial, sans-serif" font-size="13">03_march</text>
<rect x="300" y="126" width="287" height="22" rx="2" fill="#2f6f73"/>
<text x="595" y="142" font-family="Arial, sans-serif" font-size="12">55.3% (+0.4 pp, n=15,919)</text>
<text x="20" y="178" font-family="Arial, sans-serif" font-size="13">04_april</text>
<rect x="300" y="160" width="282" height="22" rx="2" fill="#2f6f73"/>
<text x="590" y="176" font-family="Arial, sans-serif" font-size="12">54.3% (-0.5 pp, n=15,435)</text>
<text x="20" y="212" font-family="Arial, sans-serif" font-size="13">05_may</text>
<rect x="300" y="194" width="284" height="22" rx="2" fill="#2f6f73"/>
<text x="592" y="210" font-family="Arial, sans-serif" font-size="12">54.7% (-0.1 pp, n=15,976)</text>
<text x="20" y="246" font-family="Arial, sans-serif" font-size="13">06_june</text>
<rect x="300" y="228" width="285" height="22" rx="2" fill="#2f6f73"/>
<text x="593" y="244" font-family="Arial, sans-serif" font-size="12">54.8% (-0.0 pp, n=15,139)</text>
<text x="20" y="280" font-family="Arial, sans-serif" font-size="13">07_july</text>
<rect x="300" y="262" width="281" height="22" rx="2" fill="#2f6f73"/>
<text x="589" y="278" font-family="Arial, sans-serif" font-size="12">54.1% (-0.8 pp, n=15,922)</text>
<text x="20" y="314" font-family="Arial, sans-serif" font-size="13">08_august</text>
<rect x="300" y="296" width="290" height="22" rx="2" fill="#2f6f73"/>
<text x="598" y="312" font-family="Arial, sans-serif" font-size="12">55.8% (+1.0 pp, n=15,912)</text>
<text x="20" y="348" font-family="Arial, sans-serif" font-size="13">09_september</text>
<rect x="300" y="330" width="287" height="22" rx="2" fill="#2f6f73"/>
<text x="595" y="346" font-family="Arial, sans-serif" font-size="12">55.3% (+0.5 pp, n=15,489)</text>
<text x="20" y="382" font-family="Arial, sans-serif" font-size="13">10_october</text>
<rect x="300" y="364" width="283" height="22" rx="2" fill="#2f6f73"/>
<text x="591" y="380" font-family="Arial, sans-serif" font-size="12">54.6% (-0.2 pp, n=12,955)</text>
<line x1="585" x2="585" y1="52" y2="416" stroke="#b33" stroke-width="2" stroke-dasharray="5,4"/>
<text x="591" y="428" font-family="Arial, sans-serif" font-size="12" fill="#b33">overall 54.8%</text>
</svg>