<svg xmlns="http://www.w3.org/2000/svg" width="1040" height="278" viewBox="0 0 1040 278">
<rect width="100%" height="100%" fill="white"/>
<text x="20" y="30" font-family="Arial, sans-serif" font-size="20" font-weight="700">AO2 Mean Profit by Shipping Mode</text>
<text x="20" y="52" font-family="Arial, sans-serif" font-size="12" fill="#555">Allowed pre-dispatch service field; descriptive association only.</text>
<line x1="330" x2="330" y1="62" y2="246" stroke="#777" stroke-width="1"/>
<line x1="824" x2="824" y1="62" y2="246" stroke="#a33" stroke-width="2" stroke-dasharray="5,4"/>
<text x="20" y="90" font-family="Arial, sans-serif" font-size="13">First Class</text>
<rect x="330" y="70" width="520" height="22" rx="2" fill="#2f6f73"/>
<line x1="1042" x2="1042" y1="68" y2="94" stroke="#222" stroke-width="2"/>
<text x="866" y="86" font-family="Arial, sans-serif" font-size="12">mean $23.12; median $31.69; n=27,814</text>
<text x="20" y="128" font-family="Arial, sans-serif" font-size="13">Same Day</text>
<rect x="330" y="108" width="468" height="22" rx="2" fill="#2f6f73"/>
<line x1="1021" x2="1021" y1="106" y2="132" stroke="#222" stroke-width="2"/>
<text x="866" y="124" font-family="Arial, sans-serif" font-size="12">mean $20.85; median $30.76; n=9,737</text>
<text x="20" y="166" font-family="Arial, sans-serif" font-size="13">Second Class</text>
<rect x="330" y="146" width="479" height="22" rx="2" fill="#2f6f73"/>
<line x1="1038" x2="1038" y1="144" y2="170" stroke="#222" stroke-width="2"/>
<text x="866" y="162" font-family="Arial, sans-serif" font-size="12">mean $21.31; median $31.50; n=35,216</text>
<text x="20" y="204" font-family="Arial, sans-serif" font-size="13">Standard Class</text>
<rect x="330" y="184" width="494" height="22" rx="2" fill="#2f6f73"/>
<line x1="1040" x2="1040" y1="182" y2="208" stroke="#222" stroke-width="2"/>
<text x="866" y="200" font-family="Arial, sans-serif" font-size="12">mean $22.00; median $31.58; n=107,752</text>
<text x="830" y="264" font-family="Arial, sans-serif" font-size="12" fill="#a33">overall mean $21.97</text>
</svg>