<svg xmlns="http://www.w3.org/2000/svg" width="1040" height="506" viewBox="0 0 1040 506">
<rect width="100%" height="100%" fill="white"/>
<text x="20" y="30" font-family="Arial, sans-serif" font-size="20" font-weight="700">AO2 Mean Profit by Product Category</text>
<text x="20" y="52" font-family="Arial, sans-serif" font-size="12" fill="#555">Allowed product category field; descriptive association only.</text>
<line x1="330" x2="330" y1="62" y2="474" stroke="#777" stroke-width="1"/>
<line x1="591" x2="591" y1="62" y2="474" stroke="#a33" stroke-width="2" stroke-dasharray="5,4"/>
<text x="20" y="90" font-family="Arial, sans-serif" font-size="13">Fishing</text>
<rect x="330" y="70" width="520" height="22" rx="2" fill="#2f6f73"/>
<line x1="1490" x2="1490" y1="68" y2="94" stroke="#222" stroke-width="2"/>
<text x="866" y="86" font-family="Arial, sans-serif" font-size="12">mean $43.65; median $97.44; n=17,325</text>
<text x="20" y="128" font-family="Arial, sans-serif" font-size="13">Golf Balls</text>
<rect x="330" y="108" width="67" height="22" rx="2" fill="#2f6f73"/>
<line x1="424" x2="424" y1="106" y2="132" stroke="#222" stroke-width="2"/>
<text x="866" y="124" font-family="Arial, sans-serif" font-size="12">mean $5.66; median $7.92; n=1,475</text>
<text x="20" y="166" font-family="Arial, sans-serif" font-size="13">Trade-In</text>
<rect x="330" y="146" width="96" height="22" rx="2" fill="#2f6f73"/>
<line x1="434" x2="434" y1="144" y2="170" stroke="#222" stroke-width="2"/>
<text x="866" y="162" font-family="Arial, sans-serif" font-size="12">mean $8.13; median $8.76; n=974</text>
<text x="20" y="204" font-family="Arial, sans-serif" font-size="13">Accessories</text>
<rect x="330" y="184" width="111" height="22" rx="2" fill="#2f6f73"/>
<line x1="471" x2="471" y1="182" y2="208" stroke="#222" stroke-width="2"/>
<text x="866" y="200" font-family="Arial, sans-serif" font-size="12">mean $9.35; median $11.89; n=1,780</text>
<text x="20" y="242" font-family="Arial, sans-serif" font-size="13">Shop By Sport</text>
<rect x="330" y="222" width="140" height="22" rx="2" fill="#2f6f73"/>
<line x1="540" x2="540" y1="220" y2="246" stroke="#222" stroke-width="2"/>
<text x="866" y="238" font-family="Arial, sans-serif" font-size="12">mean $11.82; median $17.71; n=10,984</text>
<text x="20" y="280" font-family="Arial, sans-serif" font-size="13">Golf Gloves</text>
<rect x="330" y="260" width="144" height="22" rx="2" fill="#2f6f73"/>
<line x1="475" x2="475" y1="258" y2="284" stroke="#222" stroke-width="2"/>
<text x="866" y="276" font-family="Arial, sans-serif" font-size="12">mean $12.13; median $12.21; n=1,070</text>
<text x="20" y="318" font-family="Arial, sans-serif" font-size="13">Camping &amp; Hiking</text>
<rect x="330" y="298" width="370" height="22" rx="2" fill="#2f6f73"/>
<line x1="1180" x2="1180" y1="296" y2="322" stroke="#222" stroke-width="2"/>
<text x="866" y="314" font-family="Arial, sans-serif" font-size="12">mean $31.14; median $71.40; n=13,729</text>
<text x="20" y="356" font-family="Arial, sans-serif" font-size="13">Electronics</text>
<rect x="330" y="336" width="154" height="22" rx="2" fill="#2f6f73"/>
<line x1="543" x2="543" y1="334" y2="360" stroke="#222" stroke-width="2"/>
<text x="866" y="352" font-family="Arial, sans-serif" font-size="12">mean $12.96; median $17.91; n=3,156</text>
<text x="20" y="394" font-family="Arial, sans-serif" font-size="13">Cardio Equipment</text>
<rect x="330" y="374" width="365" height="22" rx="2" fill="#2f6f73"/>
<line x1="870" x2="870" y1="372" y2="398" stroke="#222" stroke-width="2"/>
<text x="866" y="390" font-family="Arial, sans-serif" font-size="12">mean $30.67; median $45.36; n=12,487</text>
<text x="20" y="432" font-family="Arial, sans-serif" font-size="13">Men&#x27;s Footwear</text>
<rect x="330" y="412" width="167" height="22" rx="2" fill="#2f6f73"/>
<line x1="707" x2="707" y1="410" y2="436" stroke="#222" stroke-width="2"/>
<text x="866" y="428" font-family="Arial, sans-serif" font-size="12">mean $14.02; median $31.69; n=22,246</text>
<text x="597" y="492" font-family="Arial, sans-serif" font-size="12" fill="#a33">overall mean $21.97</text>
</svg>