<svg xmlns="http://www.w3.org/2000/svg" width="980" height="420" viewBox="0 0 980 420">
<rect width="100%" height="100%" fill="white"/>
<text x="20" y="30" font-family="Arial, sans-serif" font-size="20" font-weight="700">AO2 Target Distribution: Order Profit Per Order</text>
<text x="20" y="52" font-family="Arial, sans-serif" font-size="12" fill="#555">Clipped to 1st-99th percentile for readability; target remains unchanged in tables. Skewness -4.74.</text>
<rect x="70" y="330" width="33" height="12" fill="#2f6f73"/>
<text x="70" y="364" font-family="Arial, sans-serif" font-size="11" transform="rotate(35 70,364)">(-416.199, -390.607]</text>
<rect x="105" y="341" width="33" height="1" fill="#2f6f73"/>
<rect x="140" y="341" width="33" height="1" fill="#2f6f73"/>
<rect x="175" y="340" width="33" height="2" fill="#2f6f73"/>
<rect x="210" y="339" width="33" height="3" fill="#2f6f73"/>
<rect x="245" y="338" width="33" height="4" fill="#2f6f73"/>
<rect x="280" y="338" width="33" height="4" fill="#2f6f73"/>
<rect x="315" y="338" width="33" height="4" fill="#2f6f73"/>
<rect x="350" y="336" width="33" height="6" fill="#2f6f73"/>
<rect x="385" y="335" width="33" height="7" fill="#2f6f73"/>
<rect x="420" y="335" width="33" height="7" fill="#2f6f73"/>
<rect x="455" y="333" width="33" height="9" fill="#2f6f73"/>
<rect x="490" y="331" width="33" height="11" fill="#2f6f73"/>
<rect x="525" y="322" width="33" height="20" fill="#2f6f73"/>
<rect x="560" y="319" width="33" height="23" fill="#2f6f73"/>
<rect x="595" y="297" width="33" height="45" fill="#2f6f73"/>
<rect x="630" y="206" width="33" height="136" fill="#2f6f73"/>
<rect x="665" y="62" width="33" height="280" fill="#2f6f73"/>
<rect x="700" y="130" width="33" height="212" fill="#2f6f73"/>
<rect x="735" y="214" width="33" height="128" fill="#2f6f73"/>
<rect x="770" y="259" width="33" height="83" fill="#2f6f73"/>
<rect x="805" y="294" width="33" height="48" fill="#2f6f73"/>
<rect x="840" y="318" width="33" height="24" fill="#2f6f73"/>
<rect x="875" y="315" width="33" height="27" fill="#2f6f73"/>
<text x="875" y="364" font-family="Arial, sans-serif" font-size="11" transform="rotate(35 875,364)">(159.237, 184.23]</text>
<line x1="70" x2="930" y1="342" y2="342" stroke="#333"/>
<text x="20" y="400" font-family="Arial, sans-serif" font-size="12">Mean $21.97; median $31.52; IQR outliers 18,942</text>
</svg>