<svg xmlns="http://www.w3.org/2000/svg" width="980" height="440" viewBox="0 0 980 440">
<rect width="100%" height="100%" fill="white"/>
<text x="20" y="30" font-family="Arial, sans-serif" font-size="20" font-weight="700">Late-delivery Rate by Product Category</text>
<text x="300" y="50" font-family="Arial, sans-serif" font-size="12" fill="#555">Late-delivery rate</text>
<text x="20" y="76" font-family="Arial, sans-serif" font-size="13">Accessories</text>
<rect x="300" y="58" width="296" height="22" rx="2" fill="#2f6f73"/>
<text x="604" y="74" font-family="Arial, sans-serif" font-size="12">57.0% (+2.1 pp, n=1,780)</text>
<text x="20" y="110" font-family="Arial, sans-serif" font-size="13">Golf Gloves</text>
<rect x="300" y="92" width="292" height="22" rx="2" fill="#2f6f73"/>
<text x="600" y="108" font-family="Arial, sans-serif" font-size="12">56.3% (+1.4 pp, n=1,070)</text>
<text x="20" y="144" font-family="Arial, sans-serif" font-size="13">Electronics</text>
<rect x="300" y="126" width="291" height="22" rx="2" fill="#2f6f73"/>
<text x="599" y="142" font-family="Arial, sans-serif" font-size="12">56.1% (+1.3 pp, n=3,156)</text>
<text x="20" y="178" font-family="Arial, sans-serif" font-size="13">Trade-In</text>
<rect x="300" y="160" width="289" height="22" rx="2" fill="#2f6f73"/>
<text x="597" y="176" font-family="Arial, sans-serif" font-size="12">55.6% (+0.8 pp, n=974)</text>
<text x="20" y="212" font-family="Arial, sans-serif" font-size="13">Girls&#x27; Apparel</text>
<rect x="300" y="194" width="287" height="22" rx="2" fill="#2f6f73"/>
<text x="595" y="210" font-family="Arial, sans-serif" font-size="12">55.3% (+0.5 pp, n=1,201)</text>
<text x="20" y="246" font-family="Arial, sans-serif" font-size="13">Men&#x27;s Footwear</text>
<rect x="300" y="228" width="283" height="22" rx="2" fill="#2f6f73"/>
<text x="591" y="244" font-family="Arial, sans-serif" font-size="12">54.5% (-0.3 pp, n=22,246)</text>
<text x="20" y="280" font-family="Arial, sans-serif" font-size="13">Cardio Equipment</text>
<rect x="300" y="262" width="283" height="22" rx="2" fill="#2f6f73"/>
<text x="591" y="278" font-family="Arial, sans-serif" font-size="12">54.5% (-0.3 pp, n=12,487)</text>
<text x="20" y="314" font-family="Arial, sans-serif" font-size="13">Shop By Sport</text>
<rect x="300" y="296" width="286" height="22" rx="2" fill="#2f6f73"/>
<text x="594" y="312" font-family="Arial, sans-serif" font-size="12">55.2% (+0.3 pp, n=10,984)</text>
<text x="20" y="348" font-family="Arial, sans-serif" font-size="13">Camping &amp; Hiking</text>
<rect x="300" y="330" width="283" height="22" rx="2" fill="#2f6f73"/>
<text x="591" y="346" font-family="Arial, sans-serif" font-size="12">54.5% (-0.3 pp, n=13,729)</text>
<text x="20" y="382" font-family="Arial, sans-serif" font-size="13">Women&#x27;s Apparel</text>
<rect x="300" y="364" width="283" height="22" rx="2" fill="#2f6f73"/>
<text x="591" y="380" font-family="Arial, sans-serif" font-size="12">54.6% (-0.3 pp, n=21,035)</text>
<line x1="585" x2="585" y1="52" y2="416" stroke="#b33" stroke-width="2" stroke-dasharray="5,4"/>
<text x="591" y="428" font-family="Arial, sans-serif" font-size="12" fill="#b33">overall 54.8%</text>
</svg>